<svg xmlns="http://www.w3.org/2000/svg" id="Layer_1" data-name="Layer 1" viewBox="0 0 256 256"><defs><style>.cls-1{fill:#a7a9ab}</style></defs><g id="_5UNFzT.tif" data-name="5UNFzT.tif"><path d="M10.63 135.83c0-7.37-.09-14.74.02-22.11.12-8.15 3.27-14.93 9.84-19.87 2.29-1.72 4.88-2.97 7.77-3.63 4.42-1.01 8.86-.83 13.32-.78.19 0 .38.03.57.03.66 0 1.49.07 1.79-.55.33-.67-.48-1.03-.89-1.45-4.99-5.08-9.97-10.16-14.99-15.2-3.34-3.35-6.83-6.55-10.1-9.97-4.18-4.38-8.49-8.64-12.85-12.83-4.55-4.38-3.8-11.05 1.22-14.35 2.69-1.77 7.61-1.92 10.66 1.12 4.65 4.64 9.33 9.24 13.91 13.95 4.2 4.31 8.57 8.44 12.83 12.7 4.3 4.3 8.53 8.67 12.82 12.97 4.13 4.14 8.33 8.2 12.47 12.34 4.01 4.02 7.95 8.1 11.95 12.12 4.07 4.09 8.18 8.12 12.26 12.19 6.66 6.66 13.3 13.34 19.97 19.99 4.76 4.75 9.6 9.41 14.31 14.21 5.27 5.36 10.57 10.68 15.95 15.92 3.21 3.12 6.26 6.41 9.42 9.59 2.34 2.36 4.77 4.63 7.12 6.98 4.91 4.93 9.76 9.93 14.7 14.83 6.38 6.35 12.85 12.61 19.24 18.95 3.52 3.5 7.01 7.04 10.43 10.63 4.65 4.88 2.37 12.11-3.23 14.44-3.68 1.54-7.12.27-9.77-2.34-2.34-2.29-4.61-4.66-6.91-6.98-4.17-4.2-8.33-8.4-12.51-12.59-2.6-2.61-5.25-5.18-7.84-7.79-.65-.65-.7-.6-1.13.29-.66 1.35-.46 2.79-.87 4.17-1.19 4.05-3.22 7.48-6.25 10.34-4.34 4.09-9.55 6.35-15.45 6.7-5.76.33-10.88-1.72-15.47-5.13-4.23-3.14-8.45-6.28-12.66-9.45-4.23-3.18-8.42-6.4-12.65-9.58-2.94-2.22-5.92-4.39-8.87-6.6-4.94-3.7-9.91-7.38-14.8-11.15-4.52-3.48-9.66-4.96-15.27-4.97-9.25-.02-18.5.16-27.75-.05-6.34-.15-11.61-3.06-15.95-7.64-2.26-2.39-3.81-5.24-4.9-8.28-1.08-3.03-1.34-6.24-1.33-9.46.03-7.23 0-14.46 0-21.68h-.12ZM163.09 111.34v45.35c0 .14.01.28 0 .42-.05.46.2 1.1-.24 1.32-.58.29-.87-.4-1.2-.73-4.75-4.78-9.49-9.57-14.32-14.27-3.89-3.79-7.62-7.74-11.45-11.58-3.34-3.35-6.76-6.63-10.1-9.98-3.18-3.19-6.29-6.44-9.47-9.63-3.11-3.12-6.3-6.17-9.42-9.28-7.52-7.51-15.03-15.04-22.54-22.56-1.19-1.19-1.19-1.37.13-2.37 6.15-4.64 12.27-9.31 18.45-13.9 4.73-3.51 9.45-7.06 14.19-10.55 3.46-2.55 6.73-5.35 10.41-7.58 2.58-1.56 5.33-2.65 8.38-3.03 1.39-.17 2.76-.67 4.17-.47 2.74.4 5.47.85 8.09 1.88 3.56 1.39 6.58 3.6 9.06 6.41 2.31 2.62 3.94 5.68 4.83 9.18.9 3.55 1.04 7.1 1.03 10.71-.02 13.56 0 27.12 0 40.68h.01Z" class="cls-1"/></g></svg>