<?xml version="1.0" encoding="UTF-8"?>
<svg xmlns="http://www.w3.org/2000/svg" xmlns:xlink="http://www.w3.org/1999/xlink" width="64px" height="64px" viewBox="0 0 64 64" version="1.1">
<g id="surface1">
<path style="fill-rule:nonzero;fill:rgb(94.509804%,94.901961%,94.901961%);fill-opacity:0.2;stroke-width:20;stroke-linecap:butt;stroke-linejoin:miter;stroke:rgb(81.960784%,82.745098%,83.137255%);stroke-opacity:1;stroke-miterlimit:10;" d="M 243.265625 128 C 243.265625 191.65625 191.65625 243.265625 128 243.265625 C 64.34375 243.265625 12.734375 191.65625 12.734375 128 C 12.734375 64.34375 64.34375 12.734375 128 12.734375 C 191.65625 12.734375 243.265625 64.34375 243.265625 128 Z M 243.265625 128 " transform="matrix(0.25,0,0,0.25,0,0)"/>
<path style=" stroke:none;fill-rule:nonzero;fill:rgb(81.960784%,82.745098%,83.137255%);fill-opacity:1;" d="M 50.148438 26.28125 C 50.148438 27.058594 49.796875 27.675781 49.261719 28.210938 C 46.484375 30.980469 43.710938 33.75 40.941406 36.515625 C 38.601562 38.851562 36.265625 41.191406 33.925781 43.523438 C 32.765625 44.683594 31.230469 44.683594 30.070312 43.523438 C 24.953125 38.40625 19.835938 33.292969 14.71875 28.175781 C 13.335938 26.792969 13.648438 24.738281 15.363281 23.941406 C 16.351562 23.484375 17.46875 23.726562 18.335938 24.59375 C 21.464844 27.71875 24.59375 30.847656 27.726562 33.972656 C 29.046875 35.289062 30.375 36.597656 31.683594 37.921875 C 31.933594 38.171875 32.085938 38.171875 32.332031 37.921875 C 36.699219 33.546875 41.078125 29.179688 45.449219 24.800781 C 46.050781 24.199219 46.699219 23.71875 47.59375 23.71875 C 48.273438 23.714844 48.925781 23.980469 49.40625 24.464844 C 49.886719 24.945312 50.152344 25.597656 50.148438 26.277344 Z M 50.148438 26.28125 "/>
</g>
</svg>
