<svg xmlns="http://www.w3.org/2000/svg" data-name="Layer 1" viewBox="0 0 256 256"><circle cx="128" cy="128" r="115.27" style="fill:rgba(241,242,242,.2);stroke:#d1d3d4;stroke-miterlimit:10;stroke-width:20px"/><path d="M200.6 105.12c0 3.12-1.41 5.58-3.56 7.73-11.1 11.07-22.19 22.15-33.28 33.22-9.35 9.34-18.7 18.69-28.06 28.03-4.64 4.63-10.78 4.63-15.42-.01-20.47-20.46-40.94-40.92-61.41-61.39-5.53-5.53-4.27-13.75 2.58-16.93 3.95-1.84 8.43-.86 11.89 2.6 12.52 12.51 25.04 25.02 37.57 37.52 5.28 5.27 10.59 10.5 15.83 15.8.99 1 1.6 1 2.59 0 17.47-17.51 34.99-34.97 52.47-52.48 2.41-2.41 4.99-4.33 8.57-4.34a10.16 10.16 0 0 1 10.22 10.24Z" style="fill:#d1d3d4"/></svg>