<svg xmlns="http://www.w3.org/2000/svg" id="Layer_1" data-name="Layer 1" viewBox="0 0 256 256"><defs><style>.cls-1{fill:#594068}</style></defs><path d="M41.54 89.06c-.19 0-.38-.03-.57-.03-4.49-.06-8.97-.23-13.42.78-2.91.67-5.52 1.92-7.83 3.66-6.61 4.98-9.78 11.81-9.91 20.02-.11 7.42-.02 14.84-.02 22.27h.12v.92h-.12c0 7.42-.09 14.85.02 22.27.12 8.21 3.3 15.04 9.91 20.02 2.3 1.74 4.91 2.99 7.83 3.66 4.45 1.02 8.93.84 13.42.78.19 0 .38-.03.57-.03l27.05 1.29s.06-.07.1-.1c2.42.81 4.72 2.01 6.87 3.67 2.56 1.97 5.13 3.92 7.72 5.85.15.22.43.46.88.8 6.19 4.67 12.35 9.38 18.58 14 4.77 3.54 9.51 7.11 14.29 10.63 3.48 2.56 6.78 5.39 10.49 7.63 2.6 1.58 5.37 2.67 8.44 3.05.03 0 .06.01.09.02.09.01.17.03.26.04 1.28.2 2.54.6 3.85.41 2.76-.4 5.51-.86 8.14-1.89 3.59-1.4 6.63-3.62 9.12-6.45a21.68 21.68 0 0 0 3.12-4.6c.1-.19.19-.39.29-.58.06-.13.12-.25.18-.38.52-1.11.96-2.27 1.32-3.49.16-.56.23-1.13.29-1.69.11-.56.2-1.13.28-1.69.07-.27.17-.55.3-.82l.13-26.5v-21.25h.01v-3.23c.02-.2.01-.42 0-.64v-42.5c.01-.22.02-.44 0-.64v-3.23h-.01V89.84l-.13-26.5c-.13-.27-.22-.54-.3-.82-.08-.56-.17-1.13-.28-1.69-.06-.57-.13-1.14-.29-1.69-.36-1.22-.81-2.38-1.32-3.49-.06-.13-.12-.25-.18-.38-.09-.2-.19-.39-.29-.58-.84-1.66-1.88-3.19-3.12-4.6-2.49-2.83-5.53-5.05-9.12-6.45-2.64-1.03-5.38-1.49-8.14-1.89-1.3-.19-2.57.21-3.85.41-.09.01-.17.03-.26.04-.03 0-.06.01-.09.02-3.07.39-5.84 1.48-8.44 3.05-3.71 2.25-7.01 5.07-10.49 7.63-4.78 3.52-9.53 7.09-14.29 10.63-6.23 4.62-12.39 9.33-18.58 14-.45.34-.73.58-.88.8-2.58 1.94-5.16 3.88-7.72 5.85a23.466 23.466 0 0 1-6.87 3.67c-.03-.03-.06-.07-.1-.1l-27.05 1.29Z" class="cls-1"/><g id="NCGsIW.tif"><path d="M220.72 133.89c.11-2.39-.06-4.78-.26-7.15a54.26 54.26 0 0 0-1.01-6.67c-.44-2.08-1-4.12-1.53-6.17-.42-1.64-1.09-3.22-1.67-4.83-.66-1.82-1.41-3.62-2.3-5.34-.8-1.53-1.49-3.11-2.4-4.59-.71-1.14-1.4-2.29-2.12-3.43-.98-1.55-2.06-3.02-3.16-4.48-1.11-1.48-2.36-2.83-3.6-4.21-.94-1.05-1.92-2.05-2.82-3.13-1.96-2.35-2.72-4.99-1.94-8.03.45-1.74 1.3-3.21 2.66-4.33 2.36-1.95 4.98-2.82 8.09-1.94 2.25.63 3.75 2.21 5.26 3.76a69.95 69.95 0 0 1 5.02 5.71c1.5 1.92 2.96 3.86 4.35 5.86 1.59 2.29 3.04 4.66 4.4 7.07 1.35 2.4 2.53 4.9 3.6 7.45.75 1.78 1.46 3.58 2.12 5.4.8 2.19 1.47 4.42 2.04 6.68.66 2.58 1.19 5.19 1.69 7.8.59 3.05.82 6.13 1.14 9.2.42 3.94.36 7.9-.05 11.85-.2 1.95-.3 3.91-.62 5.84-.49 2.95-.97 5.9-1.69 8.81-.82 3.28-1.78 6.51-2.92 9.68a77.331 77.331 0 0 1-3.61 8.37c-1.28 2.56-2.69 5.04-4.17 7.49-1.37 2.26-2.95 4.37-4.51 6.51-2.28 3.14-4.9 5.97-7.54 8.79-2.78 2.98-6.41 4-10.18 2.42-2.9-1.22-4.73-3.58-5.25-6.77-.45-2.75.29-5.14 2.15-7.28 1.9-2.18 3.99-4.2 5.73-6.52 1.53-2.04 3.06-4.09 4.43-6.25 1.37-2.17 2.62-4.41 3.77-6.69.85-1.7 1.54-3.48 2.27-5.24.58-1.41 1.06-2.85 1.5-4.3 1.02-3.43 1.87-6.91 2.42-10.46.56-3.62.6-7.26.72-10.9Z" class="cls-1"/><path d="M207.8 135.13c-.19 3.48-.41 6.68-1.09 9.84-.56 2.57-1.15 5.12-1.93 7.65-1.18 3.81-2.88 7.38-4.78 10.84-1.39 2.53-3.06 4.9-4.88 7.17-1.76 2.19-3.57 4.34-5.71 6.17-2.56 2.19-5.54 2.71-8.66 1.54-3.83-1.44-6.16-5.6-5.45-9.71.44-2.56 1.99-4.36 3.63-6.14 2.01-2.17 3.74-4.53 5.26-7.08 1.05-1.75 1.93-3.56 2.69-5.44.84-2.07 1.55-4.18 2.03-6.39.71-3.22 1.15-6.46 1.15-9.73 0-2.13-.29-4.25-.6-6.38-.31-2.15-.77-4.24-1.42-6.28-.57-1.79-1.26-3.54-2.07-5.24-.9-1.89-1.92-3.71-3.1-5.43a42.364 42.364 0 0 0-4.47-5.47c-2.69-2.79-4.07-6.08-2.78-9.99.52-1.58 1.49-2.92 2.86-3.98 1.76-1.36 3.69-2.02 5.92-1.92 2.13.1 3.95.93 5.53 2.28 2.01 1.72 3.66 3.8 5.27 5.87 2.11 2.73 4.03 5.62 5.62 8.7 1.09 2.12 2.2 4.25 2.96 6.5.82 2.42 1.7 4.82 2.26 7.34.42 1.93.79 3.86 1.15 5.8.38 2.04.43 4.13.55 6.2.07 1.17.28 2.35.07 3.26Z" class="cls-1"/></g></svg>